<svg height="20" viewBox="0 0 88 20" width="88" xmlns="http://www.w3.org/2000/svg"><title>passed</title><g fill="none" fill-rule="evenodd"><path d="m26 0h59c1.6568542 0 3 1.34314575 3 3v14c0 1.6568542-1.3431458 3-3 3h-59z" fill="#00a569"/><path d="m3 0h23v20h-23c-1.65685425 0-3-1.3431458-3-3v-14c0-1.65685425 1.34314575-3 3-3z" fill="#203236"/><g fill-rule="nonzero"><path d="m34.2578125 5.66894531h3.5068359c1.859375 0 3.0351563 1.26464844 3.0351563 3.0078125 0 1.75683599-1.1826172 2.98730469-3.0419922 2.98730469h-2.0917969v3.3359375h-1.4082031zm1.4082031 1.2578125v3.49999999h1.3125c1.4970703 0 2.3789063-.3486328 2.3789063-1.74999999 0-1.11425781-.6494141-1.75-1.7636719-1.75zm8.7978516 8.18945309c-1.3945313 0-2.3583984-.868164-2.3583984-2.2148437 0-1.2714844.8818359-2.1328125 2.5429687-2.1328125h1.8525391v-.6835938c0-.84082028-.553711-1.21679684-1.428711-1.21679684-.868164 0-1.2441406.328125-1.3740234.80664063h-1.319336c.0957032-1.203125 1.0322266-2.00292969 2.734375-2.00292969 1.5175782 0 2.7685547.63574219 2.7685547 2.4335938v4.8945312h-1.3193359v-.9365234h-.0615234c-.334961.5537109-.9707032 1.0527343-2.0371094 1.0527343zm.4101562-1.1484375c.9160157 0 1.6269532-.6015625 1.6269532-1.4013672v-.7929687h-1.6816407c-.9228515 0-1.3193359.4511719-1.3193359 1.0527344 0 .765625.65625 1.1416015 1.3740234 1.1416015zm4.9970704-4.09472652c0-1.55859376 1.305664-2.21484376 2.7412109-2.21484376 1.5654297 0 2.625.79296876 2.625 2.06445313h-1.2578125c-.0478516-.47851563-.4921875-.984375-1.4082031-.984375-.8066407 0-1.3740235.37597656-1.3740235 1.00488281 0 .81347654 1.0048828.91601564 1.8115235 1.05957034 1.3398437.2324218 2.4199218.65625 2.4199218 2.0234375 0 1.4560547-1.1552734 2.296875-2.9326171 2.296875-1.6611329 0-2.7617188-.772461-2.7617188-2.0576172h1.3466797c.0888672.5878906.5195312.9638672 1.4833984.9638672 1.0732422 0 1.5175781-.4580078 1.5175781-1.0322266 0-.7587891-.8134765-.8818359-1.8046874-1.0732422-1.3261719-.2666015-2.40625-.6289062-2.40625-2.05078122zm7.1845703 0c0-1.55859376 1.305664-2.21484376 2.7412109-2.21484376 1.5654297 0 2.625.79296876 2.625 2.06445313h-1.2578125c-.0478516-.47851563-.4921875-.984375-1.4082031-.984375-.8066406 0-1.3740235.37597656-1.3740235 1.00488281 0 .81347654 1.0048829.91601564 1.8115235 1.05957034 1.3398437.2324218 2.4199218.65625 2.4199218 2.0234375 0 1.4560547-1.1552734 2.296875-2.9326171 2.296875-1.6611329 0-2.7617188-.772461-2.7617188-2.0576172h1.3466797c.0888672.5878906.5195312.9638672 1.4833984.9638672 1.0732422 0 1.5175782-.4580078 1.5175782-1.0322266 0-.7587891-.8134766-.8818359-1.8046875-1.0732422-1.3261719-.2666015-2.40625-.6289062-2.40625-2.05078122zm10.3017578 5.25000002c-1.9550781 0-3.1376953-1.209961-3.1376953-3.2402344v-.9912109c0-2.03710941 1.2988281-3.23339848 3.0419922-3.23339848 1.7773437 0 3.0419921 1.25097657 3.0419921 3.23339848v.8544922h-4.7167968v.3486328c0 1.0458984.6289062 1.8251953 1.7568359 1.8251953.8203125 0 1.3740234-.3759766 1.4902344-.8203125h1.3808594c-.1025391.8271484-.9775391 2.0234375-2.8574219 2.0234375zm-1.7705078-4.3544922h3.3564453v-.1025391c0-1.10058591-.663086-1.83886716-1.6748047-1.83886716-1.0117188 0-1.6816406.73828125-1.6816406 1.83886716zm9.1328125-3.0966797c1.1621093 0 1.8388672.56054688 2.078125 1.18261719h.0683593v-3.67773438h1.3808594v9.82324219h-1.3330078v-1.1484375h-.0683594c-.1845703.6220703-.9365234 1.2441406-2.1533203 1.2441406-1.6542969 0-2.7480469-1.1621093-2.7480469-3.0761719v-1.2646484c0-1.8798828 1.0800782-3.0830078 2.7753907-3.0830078zm.3349609 1.23046875c-1.0527344 0-1.7158203.75195313-1.7158203 2.07812505v.8134765c0 1.3466797.6835937 2.0849609 1.75 2.0849609 1.0732422 0 1.7773437-.7519531 1.7773437-1.9892578v-1.1142578c0-1.11425779-.7519531-1.87304685-1.8115234-1.87304685z" fill="#fff"/><path d="m10.2453301 15.9832327c-1.3496305 0-2.6992385-.5229044-3.72751957-1.5686569l-3.31781072-3.3661373 1.98426091-2.01803263 3.31781072 3.36614293c.95600236.9722182 2.52251966.9722182 3.47846576 0l2.6269654-2.6716716c.3775813-.38400563.9961478-.38400563 1.3737291 0l1.3013771 1.3235613-3.309776 3.3743015c-1.0282416 1.0457525-2.3778722 1.5604927-3.7275027 1.5604927z" fill="#667979"/><path d="m20.3594511 11.0157816-3.3178276-3.37426208c-.9639977-.98042746-2.5144681-.98042746-3.4784658 0l-2.6269091 2.67163218c-.3775812.384-.99614781.384-1.37372905 0l-1.30142219-1.32355005 3.31781634-3.37429025c2.0565396-2.09157202 5.3984658-2.09157202 7.4550054 0l3.3178276 3.37429025z" fill="#667979"/></g></g></svg>